<svg width="43" height="48" viewBox="0 0 43 48" fill="none" xmlns="http://www.w3.org/2000/svg">
<path d="M22.05 15.075C21.75 14.925 21.375 15 21.15 15.3L9.89999 30.3C9.67499 30.6 9.74999 31.125 10.05 31.35C10.2 31.425 10.35 31.5 10.5 31.5H17.625L13.5 41.7C13.35 42.075 13.575 42.525 13.95 42.675C14.25 42.75 14.55 42.75 14.775 42.525L29.025 27.525C29.325 27.225 29.325 26.775 29.025 26.475C28.875 26.325 28.725 26.25 28.5 26.25H20.4L22.5 15.9C22.575 15.525 22.35 15.225 22.05 15.075ZM26.775 27.75L16.425 38.625L19.5 30.975C19.65 30.6 19.5 30.15 19.05 30C18.975 30 18.825 30 18.75 30H12L20.4 18.825L18.75 26.85C18.675 27.225 18.9 27.675 19.35 27.75H19.5H26.775Z" fill="#57B33E"/>
<path d="M22.0501 15.075C21.7501 14.925 21.375 15 21.15 15.3L9.90005 30.3C9.75005 30.525 9.67505 30.825 9.82505 31.05C9.97505 31.275 10.2 31.5 10.5 31.5H17.625L13.5 41.7C13.35 42 13.5 42.45 13.8 42.6C13.95 42.675 14.1 42.75 14.175 42.75C14.4 42.75 14.55 42.675 14.7 42.525L28.95 27.525C29.175 27.3 29.25 27 29.1 26.7C29.1 26.4 28.8 26.25 28.5 26.25H20.4L22.5 15.9C22.575 15.525 22.35 15.225 22.0501 15.075ZM26.775 27.75L16.425 38.625L19.5 30.975C19.575 30.75 19.575 30.45 19.425 30.3C19.2 30.15 18.975 30 18.75 30H12L20.4 18.825L18.75 26.85C18.675 27.075 18.75 27.3 18.9 27.45C19.05 27.6 19.275 27.75 19.5 27.75H26.775Z" fill="#57B33E"/>
<path d="M42.75 16.5C42.75 14.85 41.85 12.6 40.05 9.6C39.825 9.225 39.375 9.15 39 9.375C38.625 9.6 38.55 10.05 38.775 10.425C40.875 13.8 41.25 15.675 41.25 16.575C41.25 20.7 37.875 24.075 33.75 24.075C29.625 24.075 26.25 20.7 26.25 16.575C26.25 13.35 31.2 6.6 33.75 3.525C34.35 4.275 35.475 5.7 36.6 7.275C36.825 7.575 37.275 7.725 37.65 7.425C37.95 7.2 38.1 6.75 37.8 6.375C36 3.825 34.35 1.875 34.275 1.875C33.975 1.575 33.45 1.575 33.15 1.875C32.925 2.1 29.7 6 27.3 9.975C23.175 4.5 19.35 0.3 19.275 0.225C19.125 0.075 18.975 0 18.75 0C18.525 0 18.375 0.075 18.225 0.225C18.225 0.225 14.775 3.975 11.025 8.85C10.8 9.15 10.8 9.675 11.175 9.9C11.475 10.125 12 10.125 12.225 9.75C15 6.075 17.625 3.075 18.75 1.875C20.025 3.3 23.25 6.975 26.55 11.325C25.5 13.2 24.75 15.075 24.75 16.5C24.75 21.45 28.8 25.5 33.75 25.5C34.2 25.5 34.575 25.425 34.95 25.425C35.625 27.225 36 28.875 36 30.075C36 39.15 28.275 46.575 18.75 46.575C9.225 46.575 1.5 39.075 1.5 30C1.5 26.25 4.425 20.25 9.975 12.675C10.2 12.375 10.125 11.85 9.825 11.625C9.525 11.4 9 11.475 8.775 11.775C2.925 19.8 0 25.875 0 30C0 39.9 8.4 48 18.75 48C29.1 48 37.5 39.9 37.5 30C37.5 28.65 37.125 26.925 36.45 25.05C40.05 23.925 42.75 20.475 42.75 16.5Z" fill="#57B33E"/>
</svg>
