<svg xmlns="http://www.w3.org/2000/svg" width="48" height="48" viewBox="0 0 48 48" fill="none"><path d="M47.2084 33.2301C46.9924 33.1941 41.9156 32.3933 39.158 35.1501C38.9392 35.3733 38.7391 35.6141 38.5596 35.8701C36.0796 34.0029 32.414 34.4157 32.2484 34.4357C32.0706 34.4571 31.9052 34.5376 31.7786 34.6642C31.6519 34.7908 31.5715 34.9563 31.55 35.1341C31.5284 35.3141 31.0436 39.5797 33.4756 42.0213C34.5969 43.0494 36.0164 43.6938 37.5284 43.8613C37.3761 44.5784 36.9825 45.2216 36.4132 45.6836C35.844 46.1455 35.1335 46.3983 34.4004 46.3997H34.1244C33.3613 46.4014 32.61 46.2106 31.9402 45.8449C31.2704 45.4793 30.7036 44.9505 30.2924 44.3077C30.0027 43.8568 29.6044 43.486 29.134 43.2292C28.6636 42.9723 28.1363 42.8377 27.6004 42.8377C27.0645 42.8377 26.5372 42.9723 26.0668 43.2292C25.5965 43.486 25.1981 43.8568 24.9084 44.3077L24.6012 44.7877C24.2839 45.2833 23.8466 45.6909 23.3299 45.9727C22.8132 46.2544 22.2338 46.4013 21.6452 46.3997C20.7849 46.3988 19.9601 46.0567 19.3517 45.4484C18.7434 44.84 18.4013 44.0152 18.4004 43.1549V40.6869C18.9524 40.5445 19.4564 40.2575 19.8606 39.8555C20.2647 39.4534 20.5544 38.9509 20.6996 38.3997H22.4004C22.8248 38.3997 23.2317 38.2311 23.5318 37.931C23.8318 37.631 24.0004 37.224 24.0004 36.7997V32.7997C23.9986 32.5955 23.9188 32.3998 23.7774 32.2525C23.6359 32.1053 23.4435 32.0177 23.2396 32.0077C23.4069 29.8242 24.3592 27.7753 25.9204 26.2397C27.6772 24.5462 28.876 22.3575 29.3569 19.9653C29.8378 17.5731 29.5781 15.0911 28.6122 12.8503C27.6464 10.6095 26.0204 8.71637 23.9511 7.42338C21.8817 6.13038 19.4674 5.49895 17.03 5.61328C14.682 5.72403 12.4182 6.5222 10.5199 7.90862C8.62168 9.29504 7.17257 11.2086 6.35264 13.4116C5.53271 15.6147 5.37809 18.01 5.90799 20.3002C6.43789 22.5903 7.62895 24.6743 9.33322 26.2933C10.8791 27.8123 11.8144 29.8454 11.962 32.0077C11.7575 32.0163 11.5643 32.1035 11.4224 32.251C11.2806 32.3985 11.2011 32.595 11.2004 32.7997V36.7997C11.2004 37.224 11.369 37.631 11.669 37.931C11.9691 38.2311 12.3761 38.3997 12.8004 38.3997H14.5012C14.6465 38.9509 14.9361 39.4534 15.3402 39.8555C15.7444 40.2575 16.2484 40.5445 16.8004 40.6869V43.1549C16.8019 44.4393 17.3128 45.6708 18.2211 46.579C19.1293 47.4873 20.3607 47.9982 21.6452 47.9997C22.502 48.0013 23.3453 47.787 24.0973 47.3764C24.8493 46.9659 25.4857 46.3724 25.9476 45.6509L26.2548 45.1709C26.3997 44.9456 26.5988 44.7604 26.8339 44.6321C27.069 44.5038 27.3326 44.4365 27.6004 44.4365C27.8682 44.4365 28.1318 44.5038 28.3669 44.6321C28.602 44.7604 28.8011 44.9456 28.946 45.1709C29.5016 46.0398 30.2674 46.7546 31.1726 47.2491C32.0777 47.7436 33.093 48.0017 34.1244 47.9997H34.4004C35.5339 47.9985 36.6304 47.5963 37.4958 46.8642C38.3611 46.1321 38.9395 45.1173 39.1284 43.9997H39.2724C39.4196 43.9997 39.5588 43.9997 39.6884 43.9925H39.8196C41.602 43.9925 44.226 43.6573 45.9468 41.9365C48.7044 39.1789 47.902 34.1013 47.8668 33.8861C47.839 33.7218 47.7607 33.5703 47.6426 33.4527C47.5246 33.3351 47.3728 33.2572 47.2084 33.2301ZM10.4348 25.1341C8.9298 23.7034 7.88751 21.855 7.44217 19.8268C6.99682 17.7986 7.16881 15.6836 7.93599 13.754C8.70317 11.8244 10.0304 10.1686 11.7468 8.99993C13.4632 7.83123 15.4901 7.20308 17.5666 7.19638C19.6431 7.18968 21.6741 7.80473 23.3979 8.96234C25.1218 10.1199 26.4597 11.7671 27.2393 13.6917C28.019 15.6163 28.2046 17.7302 27.7723 19.7612C27.3401 21.7922 26.3098 23.6473 24.814 25.0877C22.9401 26.9227 21.8066 29.3829 21.6292 31.9997H13.5724C13.4157 29.4009 12.2972 26.9534 10.4348 25.1341ZM17.6004 39.1997C17.1761 39.1997 16.7691 39.0311 16.469 38.731C16.169 38.431 16.0004 38.024 16.0004 37.5997C16.0004 37.3875 15.9161 37.184 15.7661 37.034C15.6161 36.884 15.4126 36.7997 15.2004 36.7997H12.8004V33.5997H22.4004V36.7997H20.0004C19.7882 36.7997 19.5848 36.884 19.4347 37.034C19.2847 37.184 19.2004 37.3875 19.2004 37.5997C19.2004 38.024 19.0318 38.431 18.7318 38.731C18.4317 39.0311 18.0248 39.1997 17.6004 39.1997ZM37.2956 39.0533L35.742 37.4997L34.6108 38.6309L37.1052 41.1261C37.1012 41.5109 37.1124 41.8605 37.1308 42.1589C36.1882 41.9793 35.3142 41.5408 34.6068 40.8925C33.2156 39.4965 33.0772 37.1325 33.1012 35.9901C34.1852 35.9669 36.3676 36.1053 37.7828 37.3149C37.5634 37.8768 37.4002 38.4591 37.2956 39.0533ZM44.8156 40.8077C43.4956 42.1269 41.3516 42.3893 39.8556 42.3901L44.2556 37.9901L43.1204 36.8613L38.7084 41.2733C38.7084 39.7749 38.9588 37.6157 40.2916 36.2829C41.9892 34.5853 45.0684 34.6365 46.358 34.7429C46.4652 36.0301 46.5188 39.1037 44.8156 40.8077Z" fill="#57B33E"></path><path d="M16.8004 -0.000244141H18.4004V3.19975H16.8004V-0.000244141Z" fill="#57B33E"></path><path d="M27.2156 6.85913L29.4783 4.59639L30.6097 5.72776L28.347 7.9905L27.2156 6.85913Z" fill="#57B33E"></path><path d="M4.58859 5.72046L5.71996 4.58909L7.9827 6.85183L6.85133 7.9832L4.58859 5.72046Z" fill="#57B33E"></path><path d="M32.0004 16.7998H35.2004V18.3998H32.0004V16.7998Z" fill="#57B33E"></path><path d="M0.000427246 16.7998H3.20043V18.3998H0.000427246V16.7998Z" fill="#57B33E"></path><path d="M27.2107 28.3406L28.342 27.2092L30.6048 29.4719L29.4734 30.6033L27.2107 28.3406Z" fill="#57B33E"></path><path d="M4.58603 29.4763L6.84877 27.2136L7.98014 28.3449L5.7174 30.6077L4.58603 29.4763Z" fill="#57B33E"></path><path d="M14.2084 25.3109C14.1416 25.4837 14.1369 25.6743 14.195 25.8502C14.253 26.0261 14.3704 26.1764 14.5269 26.2754C14.6834 26.3744 14.8695 26.4161 15.0533 26.3932C15.2371 26.3704 15.4073 26.2845 15.5348 26.1501L22.9812 18.2949C23.0797 18.1908 23.1484 18.0622 23.1802 17.9224C23.212 17.7827 23.2056 17.637 23.1618 17.5005C23.118 17.364 23.0383 17.2419 22.9311 17.1467C22.8239 17.0516 22.6931 16.987 22.5524 16.9597L20.0724 16.4797L21.8028 11.4597C21.864 11.2841 21.8621 11.0925 21.7974 10.9181C21.7326 10.7437 21.6092 10.5973 21.4481 10.5041C21.2871 10.4109 21.0987 10.3767 20.9152 10.4075C20.7317 10.4382 20.5647 10.532 20.4428 10.6725L12.9988 19.1829C12.9064 19.2889 12.8436 19.4173 12.8166 19.5552C12.7896 19.6932 12.7994 19.8358 12.8451 19.9687C12.8908 20.1016 12.9706 20.2202 13.0767 20.3124C13.1827 20.4047 13.3112 20.4674 13.4492 20.4941L15.8932 20.9669L14.2084 25.3109ZM15.1204 19.1877L18.9604 14.7997L18.2612 16.8285C18.2238 16.9368 18.2102 17.0519 18.2211 17.1659C18.232 17.2799 18.2673 17.3903 18.3246 17.4895C18.3818 17.5887 18.4597 17.6745 18.553 17.741C18.6463 17.8075 18.7528 17.8532 18.8652 17.8749L20.818 18.2525L17.1708 22.0989L17.7308 20.6509C17.773 20.5418 17.7907 20.4247 17.7826 20.308C17.7746 20.1912 17.7411 20.0777 17.6844 19.9753C17.6277 19.8729 17.5493 19.7842 17.4546 19.7155C17.3599 19.6467 17.2513 19.5996 17.1364 19.5773L15.1204 19.1877Z" fill="#57B33E"></path></svg>