<svg xmlns="http://www.w3.org/2000/svg" width="49" height="48" viewBox="0 0 49 48" fill="none"><path d="M25.4576 30.9095C26.5472 30.595 27.4482 29.8762 27.995 28.8857C29.1252 26.8381 28.3788 24.2529 26.3313 23.1227C24.4465 22.0209 21.6329 22.7356 20.5683 24.7863C19.438 26.8339 20.1844 29.4191 22.232 30.5493C23.1889 31.0603 24.2782 31.2327 25.4576 30.9095ZM22.9195 29.3038C22.2616 28.9407 21.7843 28.3418 21.5751 27.6174C21.366 26.8931 21.4508 26.1318 21.814 25.474C22.4907 24.2019 24.262 23.5957 25.6438 24.3683C27.0045 25.1195 27.5005 26.8375 26.7494 28.1982C26.0726 29.4702 24.3013 30.0765 22.9195 29.3038Z" fill="#57B33E"></path><path d="M28.8105 4.27422C30.1466 4.38444 31.4613 4.6706 32.7182 5.12484C33.0876 5.25867 33.4955 5.06717 33.629 4.69763C33.7626 4.32809 33.5714 3.92033 33.2018 3.78679C31.8269 3.28986 30.3888 2.97676 28.9274 2.85621C28.5447 2.82462 28.2561 2.51693 28.2561 2.14056C28.2561 1.93796 28.3382 1.75063 28.4873 1.6132C28.637 1.47519 28.8311 1.40813 29.0344 1.42501C32.698 1.72446 36.1444 3.11866 39.0012 5.45681C41.8216 7.76518 43.8621 10.8175 44.9019 14.2835C44.9576 14.4692 45.0868 14.6242 45.2595 14.7125C45.4321 14.8007 45.6335 14.8146 45.8166 14.7511L46.9898 14.3437L45.627 18.3955L42.0474 16.0602L43.1154 15.6892C43.4733 15.5648 43.6709 15.1817 43.5649 14.818C42.4141 10.8724 39.8488 7.49638 36.3415 5.31169C36.008 5.10397 35.5692 5.20593 35.3615 5.53943C35.1538 5.87292 35.2557 6.3117 35.5892 6.51942C38.6062 8.39859 40.8613 11.2404 41.9955 14.572L41.0975 14.884C40.6868 15.0268 40.3903 15.3823 40.3238 15.8119C40.2572 16.2416 40.4324 16.6703 40.7809 16.9308C40.793 16.94 40.8054 16.9487 40.8181 16.9569L45.0822 19.7389C45.594 20.1386 46.6443 19.9551 46.8874 19.1108L48.5102 14.2859C48.5151 14.2712 48.5196 14.2565 48.5236 14.2416C48.6351 13.8211 48.5061 13.376 48.187 13.0802C47.8682 12.7846 47.4152 12.6897 47.005 12.8323L46.038 13.1681C44.8602 9.72138 42.7499 6.68655 39.9023 4.35589C36.821 1.83391 33.1029 0.330157 29.1502 0.00700229C28.5549 -0.0413713 27.9619 0.162557 27.5231 0.566998C27.0847 0.97106 26.8333 1.54452 26.8333 2.14056C26.8332 3.26397 27.6833 4.18127 28.8105 4.27422Z" fill="#57B33E"></path><path d="M2.14076 21.7299C3.26416 21.7299 4.18146 20.88 4.27441 19.7528C4.53032 16.6489 5.71803 13.7329 7.70913 11.3201C9.53111 9.1122 11.8933 7.47898 14.5721 6.56766L14.8842 7.46589C15.027 7.87659 15.3827 8.173 15.8123 8.23949C16.2421 8.30588 16.6706 8.13079 16.931 7.78231C16.9401 7.77017 16.9489 7.75774 16.957 7.74503L19.739 3.48085C19.959 3.17126 20.0158 2.77507 19.8903 2.41521C19.765 2.0561 19.4749 1.78151 19.1109 1.67575L14.2861 0.0529608C14.2714 0.0480286 14.2566 0.0435706 14.2418 0.0395869C13.8215 -0.0716724 13.3762 0.0569445 13.0805 0.376021C12.7849 0.694812 12.6898 1.14791 12.8325 1.55804L13.1683 2.52504C9.72147 3.70299 6.68674 5.81331 4.35608 8.6609C1.8341 11.7422 0.330349 15.4602 0.00719432 19.4129C-0.0414639 20.008 0.162654 20.6011 0.56719 21.0401C0.971252 21.4785 1.54481 21.7299 2.14076 21.7299ZM1.42521 19.5288C1.72465 15.8653 3.11876 12.4189 5.45701 9.56208C7.76538 6.7417 10.8177 4.70129 14.2837 3.66135C14.4694 3.60567 14.6244 3.47649 14.7127 3.30376C14.801 3.13104 14.8149 2.92986 14.7513 2.74661L14.3439 1.57351L18.3957 2.93631L16.0603 6.51587L15.6893 5.44785C15.5649 5.08989 15.1817 4.89222 14.8181 4.99836C11.5985 5.93747 8.76074 7.81029 6.61171 10.4146C4.4348 13.0526 3.1363 16.2412 2.8564 19.6359C2.82482 20.0187 2.51712 20.3073 2.14066 20.3073C1.93806 20.3073 1.75083 20.2251 1.61339 20.076C1.47548 19.9263 1.4087 19.7319 1.42521 19.5288Z" fill="#57B33E"></path><path d="M46.6232 37.9124L44.2181 37.1812C43.0258 36.8186 41.787 36.6326 40.5473 36.6209L41.0732 34.4423C41.6458 32.0649 40.2555 29.6662 37.9079 28.9811L31.2751 27.0469L42.6635 26.5008C43.2047 26.4749 43.6791 26.1735 43.9328 25.6948C44.1867 25.2159 44.1697 24.6538 43.8869 24.1909L41.533 20.3422C40.258 18.2547 37.5791 17.5413 35.4344 18.7177L29.3741 22.0412L37.0428 13.6015C37.0428 13.6014 37.0429 13.6014 37.0429 13.6013C37.4071 13.2002 37.5295 12.6515 37.3703 12.1336C37.2111 11.6155 36.8014 11.2301 36.2742 11.1027L31.8885 10.0451C29.5103 9.47114 27.1114 10.8612 26.427 13.2093L24.4927 19.8396L23.9467 8.45463C23.9209 7.91265 23.6191 7.43764 23.1398 7.18401C22.6608 6.93039 22.0987 6.94822 21.6369 7.23097L17.7867 9.5843C15.7005 10.8604 14.9871 13.5395 16.1626 15.6836L19.4842 21.7407L11.0467 14.0756C10.6464 13.7111 10.098 13.5883 9.58006 13.7473C9.06171 13.9062 8.67614 14.3155 8.54857 14.8427L7.48994 19.2298C6.91733 21.607 8.30765 24.0059 10.6553 24.691L17.2881 26.6251L5.89959 27.1711C5.35847 27.197 4.88403 27.4985 4.6303 27.9772C4.37649 28.4561 4.39346 29.0182 4.67621 29.4811L7.03011 33.3298C7.88983 34.7374 9.38761 35.5202 10.9299 35.5202C11.6747 35.5202 12.4301 35.3374 13.1287 34.9543L19.1856 31.6327L13.6354 37.7423C13.3365 37.6591 13.0399 37.5642 12.747 37.4539C10.0679 36.4452 7.08399 36.3484 4.345 37.1811L1.93997 37.9123C0.779669 38.2652 0 39.3172 0 40.53V45.8144C0 47.0196 0.980467 48 2.18554 48H46.3777C47.5829 48 48.5632 47.0196 48.5632 45.8144V40.53C48.5633 39.3172 47.7837 38.2652 46.6232 37.9124ZM39.6901 34.1088L39.0669 36.6907C38.3315 36.7667 37.6023 36.9043 36.8887 37.1037L29.8413 30.7018C30.135 30.1687 30.3445 30.1895 30.8688 28.4105L37.5095 30.3469C39.1267 30.8188 40.0845 32.4714 39.6901 34.1088ZM23.6912 32.1533C22.327 31.9911 21.0421 31.3457 20.0707 30.133C19.0595 28.8379 18.686 27.1224 19.1007 25.506C20.2708 21.1735 25.7315 20.0991 28.4915 23.5376C29.5028 24.8319 29.8768 26.5466 29.4635 28.1623C28.9525 30.1883 27.0655 32.0354 24.6786 32.1706C24.4621 32.186 24.0867 32.1957 23.6912 32.1533ZM24.2079 36.6948C23.879 36.6969 23.5501 36.7124 23.2217 36.7419L24.0705 33.8323L24.2079 36.6948ZM25.6359 36.7721L25.479 33.5014C25.8762 33.3614 26.161 33.5312 27.8265 32.6066L30.8042 38.0366C30.0089 37.9341 29.2223 37.7407 28.4607 37.454C27.5464 37.1097 26.5974 36.8826 25.6359 36.7721ZM32.4676 38.1162C32.392 37.9628 29.1615 32.0875 29.0788 31.9313L35.3404 37.6195C34.405 37.921 33.438 38.0856 32.4676 38.1162ZM36.1187 19.9652C37.5958 19.1549 39.4407 19.6462 40.3191 21.0841L42.6729 24.9327C42.6801 24.9443 42.7017 24.9797 42.6758 25.0286C42.6501 25.0771 42.6089 25.0791 42.5953 25.0798L30.9464 25.6383C30.7971 24.8042 30.4947 24.0106 30.0524 23.2918L36.1187 19.9652ZM27.793 13.6077C28.2645 11.9902 29.9169 11.0327 31.555 11.4282L35.9406 12.4857C35.9538 12.4889 35.9943 12.4987 36.0106 12.5516C36.0267 12.6041 35.9989 12.6348 35.9898 12.6448L35.9899 12.6446L28.1469 21.2761C27.9501 21.2259 27.8144 20.8131 25.8557 20.2485L27.793 13.6077ZM18.5291 10.7982L22.3796 8.44467C22.3871 8.44012 22.4045 8.4294 22.4289 8.4294C22.4421 8.4294 22.4575 8.43253 22.4745 8.44154C22.5231 8.46724 22.5251 8.50888 22.5258 8.52264L23.0843 20.1706C22.2615 20.3515 21.7305 20.4819 20.7367 21.0653L17.4103 14.9996C16.6007 13.5228 17.0921 11.6772 18.5291 10.7982ZM8.87324 19.5634L9.93167 15.177C9.9349 15.1639 9.94457 15.1238 9.99731 15.1076C10.0087 15.1041 10.019 15.1027 10.0283 15.1027C10.0616 15.1027 10.0817 15.121 10.0898 15.1284L18.722 22.9705C18.5408 23.2896 18.1253 23.6925 17.6945 25.2617L11.0538 23.3253C9.43665 22.8533 8.47885 21.2007 8.87324 19.5634ZM12.4446 33.7069C10.9673 34.5172 9.12251 34.0258 8.24419 32.5879L5.89039 28.7394C5.88328 28.7277 5.86165 28.6924 5.88754 28.6435C5.91325 28.5949 5.95441 28.5929 5.96798 28.5923L17.6169 28.0337C17.7662 28.8678 18.0686 29.6613 18.511 30.3802L12.4446 33.7069ZM47.1406 45.8145C47.1406 46.2352 46.7984 46.5773 46.3778 46.5773H2.18554C1.76488 46.5773 1.42275 46.2352 1.42275 45.8145V40.5301C1.42275 39.948 1.79703 39.4431 2.35399 39.2737L4.75902 38.5425C7.19961 37.8005 9.85855 37.8868 12.2459 38.7855C14.3188 39.581 16.9149 39.786 19.1942 39.2182C19.5762 39.1265 19.8116 38.7424 19.7198 38.3604C19.6281 37.9784 19.2437 37.743 18.8621 37.8348C17.6753 38.1197 16.4631 38.1926 15.2698 38.0592L20.4155 32.3951C20.9375 32.7546 21.775 33.2129 22.7076 33.4239L21.5491 37.3951C21.4066 37.8464 21.8065 38.4015 22.3628 38.2939C24.2384 37.9432 26.1737 38.1131 27.9594 38.7854C30.6544 39.7999 33.6227 39.7999 36.3175 38.7854C38.7047 37.8867 41.3637 37.8004 43.8043 38.5424L46.2093 39.2736C46.7664 39.4429 47.1406 39.9479 47.1406 40.53V45.8145Z" fill="#57B33E"></path></svg>