<svg xmlns="http://www.w3.org/2000/svg" width="48" height="48" viewBox="0 0 48 48" fill="none"><path d="M5.66068 6.70747C5.59999 6.56129 5.58407 6.40038 5.61495 6.24514C5.64583 6.0899 5.72211 5.94733 5.83411 5.83549L8.23404 3.43557C8.38481 3.2893 8.58706 3.20821 8.79712 3.2098C9.00717 3.21139 9.20817 3.29553 9.35671 3.44406C9.50525 3.59259 9.58941 3.79359 9.59101 4.00364C9.59262 4.21369 9.51154 4.41595 9.36529 4.56673L8.33092 5.60126H9.5996C9.7578 5.6013 9.91243 5.64823 10.044 5.73614C10.1755 5.82404 10.278 5.94897 10.3385 6.09512C10.3991 6.24128 10.4149 6.4021 10.384 6.55726C10.3532 6.71242 10.277 6.85494 10.1652 6.96682L7.76525 9.36675C7.61448 9.51301 7.41223 9.59411 7.20218 9.59252C6.99213 9.59093 6.79113 9.50678 6.64259 9.35825C6.49405 9.20972 6.40989 9.00873 6.40828 8.79868C6.40668 8.58862 6.48776 8.38636 6.63401 8.23558L7.66846 7.20121H6.3997C6.24148 7.2013 6.08679 7.15443 5.95523 7.06654C5.82367 6.97864 5.72116 6.85367 5.66068 6.70747ZM47.9985 39.2003V42.4002C47.9985 42.6123 47.9142 42.8158 47.7641 42.9658C47.6141 43.1159 47.4106 43.2001 47.1985 43.2001H35.1988V46.4H39.1987C39.4109 46.4 39.6144 46.4843 39.7644 46.6344C39.9144 46.7844 39.9987 46.9879 39.9987 47.2C39.9987 47.4122 39.9144 47.6157 39.7644 47.7657C39.6144 47.9157 39.4109 48 39.1987 48H12.3714C11.0003 47.9984 9.68578 47.453 8.71623 46.4835C7.74668 45.514 7.20128 44.1994 7.19967 42.8283V29.4593C6.72192 29.5482 6.23719 29.5945 5.75124 29.5974C5.02394 29.6157 4.3022 29.4663 3.64202 29.1606C2.75855 28.6942 1.98086 28.0506 1.35764 27.2698C0.734431 26.489 0.279116 25.588 0.0202055 24.6232C-0.0241889 24.4295 0.00515245 24.2263 0.102505 24.0531C0.199858 23.8799 0.358239 23.7492 0.54675 23.6865C2.27718 23.166 4.12248 23.166 5.85291 23.6865C6.35071 23.8518 6.80915 24.1179 7.19967 24.4681V17.6009C6.56339 17.6002 5.95336 17.3471 5.50344 16.8972C5.05352 16.4473 4.80044 15.8373 4.79974 15.201V14.401C4.69467 14.4011 4.59062 14.3804 4.49353 14.3402C4.39644 14.3001 4.30823 14.2411 4.23393 14.1668C4.15964 14.0925 4.10071 14.0043 4.06053 13.9072C4.02035 13.8101 3.9997 13.7061 3.99977 13.601V11.7596C4.00039 11.6503 3.9779 11.5421 3.93378 11.4421C3.88967 11.3421 3.82492 11.2525 3.74377 11.1793C2.8218 10.3585 2.15687 9.28864 1.82913 8.09859C1.50139 6.90853 1.52483 5.64908 1.89663 4.47204C2.26842 3.295 2.97269 2.25061 3.92457 1.46474C4.87644 0.678878 6.03529 0.18508 7.26143 0.0428675C8.15828 -0.0614709 9.06706 0.0251788 9.92803 0.297121C10.789 0.569064 11.5827 1.02014 12.2569 1.62071C12.9311 2.22127 13.4706 2.95772 13.8398 3.78165C14.2091 4.60558 14.3998 5.49834 14.3995 6.40124C14.4 7.30662 14.2081 8.20177 13.8365 9.02738C13.4649 9.85299 12.9221 10.5902 12.244 11.1901C12.1652 11.2623 12.1027 11.3504 12.0605 11.4486C12.0184 11.5468 11.9976 11.6528 11.9995 11.7596V13.601C11.9995 13.8132 11.9152 14.0167 11.7652 14.1667C11.6152 14.3167 11.4117 14.401 11.1996 14.401V15.201C11.1989 15.8373 10.9458 16.4473 10.4959 16.8972C10.0459 17.3471 9.43591 17.6002 8.79962 17.6009V22.4236C9.19015 22.0734 9.64859 21.8075 10.1464 21.6422C11.8768 21.1217 13.7221 21.1217 15.4525 21.6422C15.6411 21.7049 15.7994 21.8357 15.8968 22.0088C15.9941 22.182 16.0235 22.3853 15.9791 22.5789C15.7202 23.5438 15.2649 24.4448 14.6416 25.2255C14.0184 26.0062 13.2407 26.6499 12.3573 27.1162C11.6971 27.4219 10.9753 27.5713 10.248 27.5529C9.76205 27.55 9.27735 27.5038 8.79962 27.4149V42.8283C8.80072 43.7753 9.1774 44.6831 9.847 45.3527C10.5166 46.0223 11.4245 46.399 12.3714 46.4H28.799V43.2001H18.3993C18.2943 43.2002 18.1902 43.1796 18.0931 43.1394C17.996 43.0992 17.9078 43.0403 17.8335 42.966C17.7592 42.8917 17.7003 42.8035 17.6601 42.7064C17.6199 42.6093 17.5993 42.5052 17.5994 42.4002V39.2003H17.6196C17.6128 39.1302 17.6155 39.0595 17.6276 38.9901L21.5548 24.5905C21.601 24.4212 21.7015 24.2717 21.8409 24.1651C21.9804 24.0585 22.1511 24.0007 22.3266 24.0007H43.2713C43.4469 24.0007 43.6175 24.0585 43.757 24.1651C43.8965 24.2717 43.997 24.4212 44.0431 24.5905L47.9704 38.9901C47.9825 39.0595 47.9852 39.1302 47.9784 39.2003H47.9985ZM8.83874 25.7959C9.76258 26.0453 10.7405 26.0066 11.6418 25.6851C12.7628 25.0956 13.6469 24.1384 14.1457 22.9742C12.9836 22.7529 11.7851 22.8164 10.6528 23.1593C10.1332 23.3838 9.68739 23.7503 9.36652 24.2167C9.04565 24.683 8.86273 25.2304 8.83874 25.7959ZM4.80526 9.98241C5.05572 10.2057 5.25601 10.4796 5.39295 10.7859C5.52989 11.0922 5.60036 11.4241 5.59972 11.7596V12.801H10.3996V11.7596C10.3976 11.4259 10.4666 11.0956 10.6019 10.7905C10.7373 10.4855 10.9359 10.2127 11.1847 9.99017C11.9494 9.31246 12.4778 8.40831 12.693 7.4094C12.9082 6.41049 12.7989 5.36897 12.381 4.4365C11.9632 3.50402 11.2585 2.72929 10.3697 2.22511C9.48097 1.72093 8.45445 1.51362 7.43966 1.63338C6.35799 1.76998 5.35379 2.26677 4.58889 3.0437C3.82399 3.82063 3.34294 4.83245 3.22323 5.91613C3.14376 6.67094 3.24587 7.43381 3.52107 8.14115C3.79627 8.84848 4.23657 9.47978 4.80526 9.98241ZM7.19967 16.001H8.79962C9.01175 16.0008 9.21514 15.9165 9.36513 15.7665C9.51512 15.6165 9.59945 15.4131 9.5996 15.201V14.401H6.3997V15.201C6.39982 15.4131 6.48415 15.6165 6.63414 15.7665C6.78414 15.9165 6.98754 16.0008 7.19967 16.001ZM7.16055 27.842C7.13667 27.2763 6.95383 26.7287 6.63298 26.262C6.31213 25.7954 5.86627 25.4286 5.34653 25.2038C4.21417 24.859 3.01494 24.7948 1.85223 25.0167C2.35107 26.1819 3.23573 27.14 4.3576 27.7299C5.25845 28.0532 6.23675 28.0924 7.16055 27.842ZM31.9989 38.4003V35.2004H26.2767L25.7431 38.4003H31.9989ZM24.1216 38.4003L24.6548 35.2004H20.3193L19.4473 38.4003H24.1216ZM20.7559 33.6004H24.9215L25.4548 30.4005H21.6285L20.7559 33.6004ZM43.9692 30.4005H40.1427L40.676 33.6004H44.8417L43.9692 30.4005ZM38.5214 30.4005H33.5989V33.6004H39.0547L38.5214 30.4005ZM38.2547 28.8006L37.7215 25.6007H33.5989V28.8006H38.2547ZM31.9989 25.6007H27.8767L27.3431 28.8006H31.9989V25.6007ZM27.0767 30.4005L26.5431 33.6004H31.9989V30.4005H27.0767ZM33.5989 38.4003H39.8547L39.3214 35.2004H33.5989V38.4003ZM46.1505 38.4003L45.2785 35.2004H40.9427L41.4759 38.4003H46.1505ZM42.6604 25.6007H39.3427L39.876 28.8006H43.5327L42.6604 25.6007ZM22.0649 28.8006H25.7216L26.2549 25.6007H22.9375L22.0649 28.8006ZM33.5989 43.2001H30.399V46.4H33.5989V43.2001ZM46.3985 41.6002V40.0002H19.1993V41.6002H46.3985ZM32.7989 8.00119C32.7989 7.36831 32.9866 6.74964 33.3382 6.22342C33.6898 5.6972 34.1896 5.28706 34.7743 5.04486C35.359 4.80267 36.0024 4.7393 36.6231 4.86277C37.2438 4.98624 37.814 5.291 38.2615 5.73852C38.709 6.18603 39.0138 6.7562 39.1372 7.37692C39.2607 7.99764 39.1973 8.64104 38.9551 9.22574C38.7129 9.81045 38.3028 10.3102 37.7766 10.6618C37.2504 11.0134 36.6317 11.2011 35.9988 11.2011C35.1504 11.2003 34.337 10.8629 33.7371 10.263C33.1371 9.66303 32.7997 8.8496 32.7989 8.00119ZM34.3989 8.00119C34.3989 8.31763 34.4927 8.62697 34.6685 8.89008C34.8443 9.15319 35.0942 9.35826 35.3865 9.47935C35.6789 9.60045 36.0006 9.63214 36.311 9.5704C36.6213 9.50867 36.9064 9.35629 37.1302 9.13253C37.3539 8.90877 37.5063 8.62369 37.568 8.31333C37.6298 8.00296 37.5981 7.68127 37.477 7.38892C37.3559 7.09656 37.1508 6.84668 36.8877 6.67088C36.6246 6.49507 36.3153 6.40124 35.9988 6.40124C35.5746 6.40179 35.168 6.57053 34.8681 6.87046C34.5682 7.17039 34.3994 7.57703 34.3989 8.00119ZM35.9988 3.20133C36.211 3.20133 36.4145 3.11705 36.5645 2.96703C36.7145 2.817 36.7988 2.61352 36.7988 2.40136V0.801405C36.7988 0.589238 36.7145 0.385761 36.5645 0.235736C36.4145 0.0857117 36.211 0.00142873 35.9988 0.00142873C35.7866 0.00142873 35.5832 0.0857117 35.4331 0.235736C35.2831 0.385761 35.1988 0.589238 35.1988 0.801405V2.40136C35.1988 2.50643 35.2194 2.61048 35.2596 2.70757C35.2998 2.80466 35.3587 2.89287 35.433 2.96717C35.5073 3.04146 35.5955 3.10039 35.6926 3.14057C35.7897 3.18075 35.8937 3.2014 35.9988 3.20133ZM40.7987 8.00119C40.7986 8.10626 40.8193 8.21032 40.8594 8.3074C40.8996 8.40449 40.9585 8.4927 41.0328 8.567C41.1071 8.6413 41.1953 8.70022 41.2924 8.7404C41.3895 8.78058 41.4936 8.80123 41.5986 8.80117H43.1986C43.4108 8.80117 43.6142 8.71688 43.7643 8.56686C43.9143 8.41683 43.9986 8.21336 43.9986 8.00119C43.9986 7.78902 43.9143 7.58555 43.7643 7.43552C43.6142 7.2855 43.4108 7.20121 43.1986 7.20121H41.5986C41.4936 7.20115 41.3895 7.2218 41.2924 7.26198C41.1953 7.30216 41.1071 7.36108 41.0328 7.43538C40.9585 7.50968 40.8996 7.59789 40.8594 7.69498C40.8193 7.79206 40.7986 7.89612 40.7987 8.00119ZM28.799 8.80117H30.399C30.6111 8.80117 30.8146 8.71688 30.9647 8.56686C31.1147 8.41683 31.199 8.21336 31.199 8.00119C31.199 7.78902 31.1147 7.58555 30.9647 7.43552C30.8146 7.2855 30.6111 7.20121 30.399 7.20121H28.799C28.5869 7.20121 28.3834 7.2855 28.2334 7.43552C28.0833 7.58555 27.9991 7.78902 27.9991 8.00119C27.9991 8.21336 28.0833 8.41683 28.2334 8.56686C28.3834 8.71688 28.5869 8.80117 28.799 8.80117ZM39.9979 4.80129C40.1148 4.80164 40.2304 4.7762 40.3364 4.72678C40.4424 4.67736 40.5362 4.60518 40.6112 4.51537L41.6066 3.32933C41.6779 3.24941 41.7324 3.15599 41.7669 3.05463C41.8013 2.95326 41.8151 2.846 41.8074 2.73921C41.7997 2.63242 41.7706 2.52827 41.7218 2.43293C41.6731 2.33759 41.6057 2.253 41.5237 2.18417C41.4417 2.11535 41.3467 2.06369 41.2443 2.03226C41.142 2.00083 41.0344 1.99026 40.9279 2.00119C40.8213 2.01212 40.7181 2.04432 40.6243 2.09588C40.5304 2.14744 40.4479 2.21731 40.3816 2.30136L39.3862 3.48724C39.2885 3.60383 39.226 3.74588 39.2061 3.89674C39.1862 4.0476 39.2097 4.20099 39.2739 4.33894C39.3382 4.47688 39.4404 4.59365 39.5686 4.67555C39.6969 4.75744 39.8457 4.80106 39.9979 4.80129ZM31.4849 4.61377C31.5648 4.68521 31.6583 4.73987 31.7597 4.77451C31.8611 4.80914 31.9684 4.82305 32.0753 4.81539C32.1822 4.80774 32.2865 4.77869 32.382 4.72996C32.4774 4.68124 32.5621 4.61383 32.631 4.53174C32.6999 4.44965 32.7516 4.35455 32.783 4.2521C32.8144 4.14964 32.825 4.04192 32.814 3.93531C32.803 3.82871 32.7706 3.72541 32.7189 3.63153C32.6672 3.53766 32.5972 3.45513 32.513 3.38885L31.327 2.39336C31.247 2.32208 31.1536 2.26756 31.0523 2.23305C30.9509 2.19854 30.8436 2.18474 30.7368 2.19245C30.63 2.20017 30.5258 2.22925 30.4305 2.27797C30.3351 2.32669 30.2505 2.39406 30.1817 2.47609C30.1128 2.55812 30.0612 2.65313 30.0297 2.7555C29.9983 2.85786 29.9877 2.9655 29.9987 3.07203C30.0096 3.17855 30.0418 3.2818 30.0934 3.37564C30.1449 3.46949 30.2148 3.55203 30.2989 3.61836L31.4849 4.61377ZM35.1988 13.601V15.201C35.1988 15.4131 35.2831 15.6166 35.4331 15.7666C35.5832 15.9167 35.7866 16.001 35.9988 16.001C36.211 16.001 36.4145 15.9167 36.5645 15.7666C36.7145 15.6166 36.7988 15.4131 36.7988 15.201V13.601C36.7988 13.3889 36.7145 13.1854 36.5645 13.0354C36.4145 12.8853 36.211 12.801 35.9988 12.801C35.7866 12.801 35.5832 12.8853 35.4331 13.0354C35.2831 13.1854 35.1988 13.3889 35.1988 13.601ZM40.3815 13.701C40.5198 13.8566 40.7134 13.9521 40.921 13.9673C41.1287 13.9825 41.334 13.9161 41.4935 13.7823C41.653 13.6485 41.7541 13.4578 41.7752 13.2506C41.7963 13.0435 41.7358 12.8363 41.6066 12.6731L40.6114 11.4872C40.473 11.3317 40.2795 11.2363 40.0719 11.2212C39.8643 11.2061 39.659 11.2725 39.4996 11.4063C39.3401 11.5401 39.2391 11.7308 39.218 11.9378C39.1969 12.1449 39.2573 12.352 39.3864 12.5153L40.3815 13.701ZM31.4849 11.3886L30.2991 12.3839C30.215 12.4502 30.1452 12.5327 30.0936 12.6266C30.0421 12.7204 30.0099 12.8236 29.999 12.9301C29.9881 13.0366 29.9986 13.1442 30.03 13.2466C30.0615 13.3489 30.1131 13.4439 30.1819 13.5259C30.2507 13.6079 30.3353 13.6753 30.4306 13.724C30.526 13.7728 30.6301 13.8019 30.7369 13.8096C30.8436 13.8174 30.9509 13.8036 31.0522 13.7691C31.1536 13.7347 31.247 13.6802 31.327 13.609L32.5128 12.6137C32.597 12.5474 32.6671 12.4649 32.7188 12.371C32.7705 12.2771 32.8028 12.1738 32.8138 12.0672C32.8248 11.9606 32.8143 11.8529 32.7828 11.7504C32.7514 11.648 32.6997 11.5529 32.6308 11.4708C32.5619 11.3887 32.4772 11.3213 32.3818 11.2726C32.2863 11.2239 32.1821 11.1948 32.0752 11.1871C31.9683 11.1795 31.8609 11.1934 31.7595 11.228C31.6581 11.2627 31.5648 11.3172 31.4849 11.3886Z" fill="#57B33E"></path></svg>