<svg xmlns="http://www.w3.org/2000/svg" width="50" height="48" viewBox="0 0 50 48" fill="none"><path d="M18.5797 44.7044C18.6655 44.7341 18.7535 44.7483 18.8404 44.7482C19.114 44.7482 19.3765 44.6071 19.5245 44.3624L30.1355 26.8174C30.2848 26.5705 30.2895 26.2624 30.1478 26.0112C30.0061 25.7598 29.74 25.6044 29.4515 25.6044H24.9619L26.5966 12.1474C26.642 11.7732 26.4199 11.4182 26.0638 11.2953C25.7077 11.1724 25.3139 11.3148 25.1189 11.6372L14.5081 29.1821C14.3588 29.429 14.3541 29.7372 14.4958 29.9884C14.6375 30.2398 14.9036 30.3952 15.1921 30.3952H19.6817L18.0469 43.8523C18.0015 44.2263 18.2235 44.5813 18.5797 44.7044ZM16.6099 28.7964L24.5605 15.6502L23.266 26.3074C23.2385 26.5345 23.3095 26.7626 23.4612 26.934C23.6129 27.1053 23.8308 27.2033 24.0596 27.2033H28.0337L20.083 40.3494L21.3776 29.6923C21.4051 29.4651 21.3341 29.237 21.1824 29.0657C21.0306 28.8944 20.8128 28.7964 20.584 28.7964H16.6099ZM48.8021 16.6548H47.1778V11.073C47.1778 9.58797 45.971 8.37988 44.4876 8.37988C43.0042 8.37988 41.7944 9.58807 41.7944 11.073V16.6548H39.8129V11.073C39.8129 9.58797 38.6047 8.37988 37.1197 8.37988C35.6347 8.37988 34.4294 9.58807 34.4294 11.073V16.6548H32.8051C32.3636 16.6548 32.0057 17.0127 32.0057 17.4543V19.5549C32.0057 20.6475 32.6132 21.6007 33.5081 22.095V25.837C33.5081 28.6252 35.0813 31.052 37.3862 32.2791V34.7469C37.3862 35.6895 38.1544 36.4565 39.0985 36.4565H39.4705C35.7992 42.6242 29.213 46.401 21.9674 46.401C10.7362 46.401 1.59902 37.2625 1.59902 26.0298C1.59902 23.3174 2.12196 20.6897 3.15323 18.2112C3.15363 18.2102 3.15423 18.2094 3.15473 18.2084C3.57666 17.2337 4.97947 14.8551 7.26874 12.829C9.03607 11.2649 10.9055 10.2578 12.8545 9.81619C9.99504 11.8553 8.25831 14.1194 7.24753 15.8322C5.81173 18.2654 5.4819 20.1392 5.4686 20.2178C5.4293 20.449 5.49361 20.6859 5.64452 20.8656C5.79533 21.0452 6.01744 21.1496 6.25196 21.151C6.30406 21.1513 6.35537 21.1514 6.40717 21.1514C14.9985 21.1513 18.0606 16.8337 20.7637 13.0216C23.2727 9.48327 25.4425 6.42844 31.607 6.74886C31.967 6.76717 32.29 6.54675 32.4053 6.20832C32.5206 5.8699 32.3972 5.49607 32.1031 5.29286C26.6966 1.55718 21.3753 -0.216049 16.2814 0.0209689C12.0537 0.218183 8.0954 1.88531 5.13558 4.71511C3.09913 6.66226 1.62472 9.08294 0.983773 11.5312C0.362927 13.9033 0.559841 16.1657 1.53321 17.9548C0.516538 20.5233 0 23.235 0 26.0298C0 31.8977 2.28497 37.4147 6.43397 41.5644C10.5831 45.7144 16.0996 48 21.9673 48C26.0998 48 30.1268 46.8454 33.6128 44.6611C36.8468 42.6347 39.4957 39.8049 41.3054 36.4565H42.5086C43.4527 36.4565 44.2209 35.6895 44.2209 34.7469V32.2783C46.5257 31.051 48.0989 28.6247 48.0989 25.837V22.095C48.9938 21.6007 49.6014 20.6475 49.6014 19.5549V17.4543C49.6014 17.0127 49.2434 16.6548 48.8019 16.6548H48.8021ZM6.24056 5.8707C10.763 1.54668 18.9943 -0.691384 29.0268 5.22075C23.9231 5.80339 21.6581 8.99563 19.4592 12.0966C16.9624 15.6178 14.3848 19.2535 7.30214 19.5348C7.95839 17.5261 10.1157 12.7666 16.4348 9.50397C16.7523 9.34006 16.9224 8.98543 16.8516 8.6352C16.7809 8.28508 16.4864 8.02436 16.1303 7.99656C15.8175 7.97215 15.5052 7.96005 15.1938 7.96005C12.0244 7.96005 8.93616 9.21805 6.20916 11.6315C4.51253 13.133 3.26624 14.7999 2.48338 16.0801C1.60222 13.0393 3.04802 8.92312 6.24056 5.8707ZM43.3933 11.073C43.3933 10.4696 43.8841 9.9787 44.4875 9.9787C45.0908 9.9787 45.5788 10.4696 45.5788 11.073V16.6548H43.3932V11.073H43.3933ZM36.0283 11.073C36.0283 10.4696 36.5179 9.9787 37.1196 9.9787C37.7214 9.9787 38.2138 10.4696 38.2138 11.073V16.6548H36.0283V11.073ZM33.6045 18.2536H48.0026V19.5548C48.0026 20.2723 47.419 20.856 46.7014 20.856H34.9057C34.1881 20.856 33.6045 20.2723 33.6045 19.5548V18.2536ZM42.622 34.7468C42.622 34.8068 42.5701 34.8573 42.5087 34.8573H39.0984C39.0369 34.8573 38.985 34.8067 38.985 34.7468V32.9018C39.5661 33.0513 40.175 33.131 40.8021 33.131C41.4293 33.131 42.04 33.0512 42.6219 32.9014V34.7469L42.622 34.7468ZM40.8022 31.532C37.6619 31.532 35.107 28.9772 35.107 25.8369V22.4549H46.5002V25.8369C46.5002 28.9772 43.9441 31.532 40.8022 31.532Z" fill="#57B33E"></path></svg>