<?xml version="1.0" encoding="UTF-8"?>
<svg version="1.1" xmlns="http://www.w3.org/2000/svg" width="100" height="76">
<path d="M0 0 C33 0 66 0 100 0 C100 25.08 100 50.16 100 76 C67 76 34 76 0 76 C0 50.92 0 25.84 0 0 Z " fill="#790BE7" transform="translate(0,0)"/>
<path d="M0 0 C1.98 0 3.96 0 6 0 C8 2 8 2 8.265625 4.96875 C8.26046875 6.1340625 8.2553125 7.299375 8.25 8.5 C8.25515625 9.6653125 8.2603125 10.830625 8.265625 12.03125 C8 15 8 15 6 17 C4.02 17 2.04 17 0 17 C0 11.39 0 5.78 0 0 Z " fill="#AA43A8" transform="translate(67,28)"/>
<path d="M0 0 C0.99 0.33 1.98 0.66 3 1 C3.144375 1.639375 3.28875 2.27875 3.4375 2.9375 C3.80104993 5.20311706 3.80104993 5.20311706 6.0625 6.25 C6.701875 6.4975 7.34125 6.745 8 7 C8.07654536 11.51617599 8.10228696 15.59085217 7 20 C5.02 20 3.04 20 1 20 C-3.0941591 13.22889073 -1.56656186 7.49470244 0 0 Z " fill="#3F8876" transform="translate(26,28)"/>
<path d="M0 0 C2.31 0 4.62 0 7 0 C7 2.97 7 5.94 7 9 C5.02 9.66 3.04 10.32 1 11 C1.33 11.99 1.66 12.98 2 14 C0.35 14 -1.3 14 -3 14 C-2.67 13.01 -2.34 12.02 -2 11 C-2.66 10.67 -3.32 10.34 -4 10 C-3.67 9.01 -3.34 8.02 -3 7 C-3.38932856 4.85744207 -3.38932856 4.85744207 -4 3 C-3.01 3.33 -2.02 3.66 -1 4 C-0.67 2.68 -0.34 1.36 0 0 Z " fill="#5756A4" transform="translate(19,28)"/>
<path d="M0 0 C1.65 0 3.3 0 5 0 C5.66 5.61 6.32 11.22 7 17 C6.01 17 5.02 17 4 17 C4 16.01 4 15.02 4 14 C3.01 14 2.02 14 1 14 C0.67 14.99 0.34 15.98 0 17 C-0.66 17 -1.32 17 -2 17 C-1.34 11.39 -0.68 5.78 0 0 Z " fill="#C66483" transform="translate(78,28)"/>
<path d="M0 0 C1.32 0 2.64 0 4 0 C5.34844868 5.6556294 6.36934845 11.2190275 7 17 C6.01 17 5.02 17 4 17 C4 16.01 4 15.02 4 14 C2.68 14 1.36 14 0 14 C0 14.99 0 15.98 0 17 C-0.66 17 -1.32 17 -2 17 C-1.85848172 14.9163691 -1.71162064 12.83310062 -1.5625 10.75 C-1.48128906 9.58984375 -1.40007813 8.4296875 -1.31640625 7.234375 C-1.06752213 4.69022624 -0.71885058 2.44046752 0 0 Z " fill="#BD598F" transform="translate(59,28)"/>
<path d="M0 0 C1.65 0.33 3.3 0.66 5 1 C6.03590199 6.05002222 6.10251672 10.87416389 6 16 C5.34 16 4.68 16 4 16 C4 15.34 4 14.68 4 14 C2.68 14 1.36 14 0 14 C0 14.99 0 15.98 0 17 C-0.66 17 -1.32 17 -2 17 C-1.85786703 15.10388566 -1.71113093 13.20811606 -1.5625 11.3125 C-1.48128906 10.25675781 -1.40007813 9.20101562 -1.31640625 8.11328125 C-1.03548319 5.34913703 -0.59843148 2.71054259 0 0 Z " fill="#C86681" transform="translate(40,28)"/>
<path d="M0 0 C2.5625 0.1875 2.5625 0.1875 4.5625 2.1875 C4.5625 3.5075 4.5625 4.8275 4.5625 6.1875 C3.5725 6.1875 2.5825 6.1875 1.5625 6.1875 C1.5625 4.8675 1.5625 3.5475 1.5625 2.1875 C0.9025 2.1875 0.2425 2.1875 -0.4375 2.1875 C-0.4375 6.1475 -0.4375 10.1075 -0.4375 14.1875 C0.2225 14.1875 0.8825 14.1875 1.5625 14.1875 C1.5625 13.1975 1.5625 12.2075 1.5625 11.1875 C2.2225 11.1875 2.8825 11.1875 3.5625 11.1875 C3.5625 12.8375 3.5625 14.4875 3.5625 16.1875 C1.1875 16.8125 1.1875 16.8125 -1.4375 17.1875 C-3.4375 15.1875 -3.4375 15.1875 -3.66796875 11.96484375 C-3.64669922 10.06412109 -3.64669922 10.06412109 -3.625 8.125 C-3.61855469 6.85527344 -3.61210938 5.58554687 -3.60546875 4.27734375 C-3.38710938 0.26054687 -3.38710938 0.26054687 0 0 Z " fill="#CB697D" transform="translate(51.4375,27.8125)"/>
<path d="M0 0 C0.66 0 1.32 0 2 0 C2 1.32 2 2.64 2 4 C2.9590625 3.7215625 2.9590625 3.7215625 3.9375 3.4375 C4.618125 3.293125 5.29875 3.14875 6 3 C6.33 3.33 6.66 3.66 7 4 C6.91015699 5.85772162 6.75388139 7.71247985 6.5625 9.5625 C6.46066406 10.57441406 6.35882813 11.58632813 6.25390625 12.62890625 C6.17011719 13.41136719 6.08632813 14.19382812 6 15 C5.34 14.34 4.68 13.68 4 13 C4 11.68 4 10.36 4 9 C3.34 9 2.68 9 2 9 C2 9.99 2 10.98 2 12 C1.34 12 0.68 12 0 12 C0 8.04 0 4.08 0 0 Z " fill="#7F12E0" transform="translate(51,30)"/>
<path d="M0 0 C0.33 0 0.66 0 1 0 C1.06058594 0.84304687 1.12117188 1.68609375 1.18359375 2.5546875 C1.26738281 3.65039062 1.35117187 4.74609375 1.4375 5.875 C1.51871094 6.96554688 1.59992187 8.05609375 1.68359375 9.1796875 C1.83001703 11.94728971 1.83001703 11.94728971 3 14 C4.97888961 14.72693904 6.97954558 15.39816251 9 16 C9 16.33 9 16.66 9 17 C6.6739143 17.38063221 4.33944736 17.71269945 2 18 C1.67 17.67 1.34 17.34 1 17 C-0.99958364 16.95919217 -3.00045254 16.95745644 -5 17 C-5 16.34 -5 15.68 -5 15 C-4.03320312 14.70996094 -4.03320312 14.70996094 -3.046875 14.4140625 C-0.65648799 13.11291753 -0.65648799 13.11291753 -0.390625 9.9609375 C-0.34421875 8.77757812 -0.2978125 7.59421875 -0.25 6.375 C-0.19328125 5.18648437 -0.1365625 3.99796875 -0.078125 2.7734375 C-0.05234375 1.85820313 -0.0265625 0.94296875 0 0 Z " fill="#7A29CB" transform="translate(47,31)"/>
<path d="M0 0 C0.66 0.33 1.32 0.66 2 1 C1.01 3.31 0.02 5.62 -1 8 C0.98 8 2.96 8 5 8 C5.33 8.66 5.66 9.32 6 10 C4.35 10.33 2.7 10.66 1 11 C1.33 11.99 1.66 12.98 2 14 C0.35 14 -1.3 14 -3 14 C-2.67 13.01 -2.34 12.02 -2 11 C-2.66 10.67 -3.32 10.34 -4 10 C-3.67 9.01 -3.34 8.02 -3 7 C-3.38932856 4.85744207 -3.38932856 4.85744207 -4 3 C-3.01 3.33 -2.02 3.66 -1 4 C-0.67 2.68 -0.34 1.36 0 0 Z " fill="#5658A2" transform="translate(19,28)"/>
<path d="M0 0 C1.66611905 -0.042721 3.33382885 -0.04063832 5 0 C6.87243981 1.87243981 6.17380392 4.93659518 6.1875 7.4375 C6.20167969 8.61183594 6.21585938 9.78617188 6.23046875 10.99609375 C6 14 6 14 4 16 C0.875 16.125 0.875 16.125 -2 16 C-2 15.34 -2 14.68 -2 14 C-0.02 14 1.96 14 4 14 C3.9131252 12.04082341 3.80495488 10.08258129 3.6875 8.125 C3.62949219 7.03445312 3.57148437 5.94390625 3.51171875 4.8203125 C3.34285156 3.88960937 3.17398438 2.95890625 3 2 C2.01 1.34 1.02 0.68 0 0 Z " fill="#C66483" transform="translate(69,29)"/>
<path d="M0 0 C0.66 0 1.32 0 2 0 C2.33 3.3 2.66 6.6 3 10 C2.01 10 1.02 10 0 10 C-0.33 10.99 -0.66 11.98 -1 13 C-1.66 13 -2.32 13 -3 13 C-2.88610125 11.20759337 -2.75852313 9.41605165 -2.625 7.625 C-2.55539063 6.62726562 -2.48578125 5.62953125 -2.4140625 4.6015625 C-2 2 -2 2 0 0 Z " fill="#AE49A2" transform="translate(79,32)"/>
<path d="M0 0 C1.65 0 3.3 0 5 0 C4.01 0.33 3.02 0.66 2 1 C2 2.65 2 4.3 2 6 C2.66 6 3.32 6 4 6 C4 6.99 4 7.98 4 9 C4.66 9 5.32 9 6 9 C6 8.01 6 7.02 6 6 C6.66 6 7.32 6 8 6 C8 7.65 8 9.3 8 11 C6.02 11 4.04 11 2 11 C-1.07692308 4.6 -1.07692308 4.6 -0.6875 1.5625 C-0.460625 1.046875 -0.23375 0.53125 0 0 Z " fill="#2FA957" transform="translate(25,37)"/>
<path d="M0 0 C1.65 0 3.3 0 5 0 C7 2 7 2 7 6 C6.01 6 5.02 6 4 6 C4 4.68 4 3.36 4 2 C3.34 2 2.68 2 2 2 C2 5.96 2 9.92 2 14 C1.67 14 1.34 14 1 14 C0.67 9.38 0.34 4.76 0 0 Z " fill="#B75297" transform="translate(49,28)"/>
<path d="M0 0 C2.97 0.495 2.97 0.495 6 1 C6 2.32 6 3.64 6 5 C5.34 5 4.68 5 4 5 C4 5.99 4 6.98 4 8 C3.34 8 2.68 8 2 8 C2 7.01 2 6.02 2 5 C1.34 5 0.68 5 0 5 C-0.33 4.01 -0.66 3.02 -1 2 C-0.67 1.34 -0.34 0.68 0 0 Z " fill="#6637C1" transform="translate(27,38)"/>
<path d="M0 0 C0.33 0 0.66 0 1 0 C1.22174933 1.45635371 1.42698698 2.91522956 1.625 4.375 C1.74101563 5.18710937 1.85703125 5.99921875 1.9765625 6.8359375 C1.98429687 7.55007812 1.99203125 8.26421875 2 9 C1.34 9.66 0.68 10.32 0 11 C-0.99 11 -1.98 11 -3 11 C-3 8.69 -3 6.38 -3 4 C-2.34 3.67 -1.68 3.34 -1 3 C-0.67 2.01 -0.34 1.02 0 0 Z " fill="#A740AC" transform="translate(44,29)"/>
<path d="M0 0 C1.32 0 2.64 0 4 0 C4 1.98 4 3.96 4 6 C2.02 6 0.04 6 -2 6 C-2 5.34 -2 4.68 -2 4 C-1.34 4 -0.68 4 0 4 C0 2.68 0 1.36 0 0 Z " fill="#741FD5" transform="translate(59,42)"/>
<path d="M0 0 C0.66 0.33 1.32 0.66 2 1 C1.67 1.99 1.34 2.98 1 4 C1.66 4 2.32 4 3 4 C3 2.68 3 1.36 3 0 C3.66 0 4.32 0 5 0 C5 2.31 5 4.62 5 7 C2.69 6.67 0.38 6.34 -2 6 C-1.34 4.02 -0.68 2.04 0 0 Z " fill="#7E07EF" transform="translate(20,30)"/>
<path d="M0 0 C1.98 0.66 3.96 1.32 6 2 C6 4.64 6 7.28 6 10 C5.67 8.68 5.34 7.36 5 6 C4.34 6 3.68 6 3 6 C3 4.68 3 3.36 3 2 C2.01 2 1.02 2 0 2 C0 1.34 0 0.68 0 0 Z " fill="#2AB44D" transform="translate(28,33)"/>
<path d="M0 0 C0.66 0 1.32 0 2 0 C1.67 3.63 1.34 7.26 1 11 C-1 9 -1 9 -1.23046875 7.08984375 C-1.11111111 1.11111111 -1.11111111 1.11111111 0 0 Z " fill="#7E12E0" transform="translate(76,30)"/>
<path d="M0 0 C0.66 0 1.32 0 2 0 C2 1.65 2 3.3 2 5 C0.35 5.33 -1.3 5.66 -3 6 C-3.33 5.34 -3.66 4.68 -4 4 C-2.68 3.67 -1.36 3.34 0 3 C0 2.01 0 1.02 0 0 Z " fill="#C46186" transform="translate(53,39)"/>
<path d="M0 0 C0.33 0 0.66 0 1 0 C1.33 2.64 1.66 5.28 2 8 C1.01 8 0.02 8 -1 8 C-1 7.01 -1 6.02 -1 5 C-2.32 4.67 -3.64 4.34 -5 4 C-4.0409375 3.8453125 -4.0409375 3.8453125 -3.0625 3.6875 C-2.381875 3.460625 -1.70125 3.23375 -1 3 C-0.67 2.01 -0.34 1.02 0 0 Z " fill="#BA5693" transform="translate(64,37)"/>
<path d="M0 0 C0.33 0.66 0.66 1.32 1 2 C1.66 2 2.32 2 3 2 C3 3.32 3 4.64 3 6 C2.01 6 1.02 6 0 6 C0 5.34 0 4.68 0 4 C-0.66 4 -1.32 4 -2 4 C-1 1 -1 1 0 0 Z " fill="#741BDA" transform="translate(37,43)"/>
</svg>
